# xmcd
#
# Track frame offsets: 
#        150
#        12935
#        32279
#        48631
#        62333
#        76973
#        88623
#        106086
#
# Disc length: 2075 seconds
#
# Revision: 0
# Processed by: cddbd v1.5.2PL0 Copyright (c) Steve Scherf et al.
# Submitted via: ExactAudioCopy v1.0b4
#
DISCID=4f081908
DTITLE=Blues Brother Experience feat. The Original Brothers Band  - 25
DTITLE=Years
DYEAR=2015
DGENRE=Blues
TTITLE0=Spoonful
TTITLE1=Howlin' for My Darlin'
TTITLE2=She Caught the Katy
TTITLE3=Green Onions
TTITLE4=Riot in Cellblock Number Nine
TTITLE5=Rubber Biscuit
TTITLE6=Sweet Home Chicago
TTITLE7=25 Years Camouflage
EXTD=
EXTT0=
EXTT1=
EXTT2=
EXTT3=
EXTT4=
EXTT5=
EXTT6=
EXTT7=
PLAYORDER=
